<svg width="280" height="280" viewBox="0 0 280 280" fill="none" xmlns="http://www.w3.org/2000/svg">
<path d="M208.145 167.089C208.34 166.897 208.511 166.692 208.71 166.504C211.151 164.197 226.327 148.834 230.121 134.241C233.464 121.383 233.722 110.219 227.206 97.3631C225.449 93.8971 223.961 93.2553 219.63 83.7919C215.824 75.4757 211.939 64.3052 211.053 61.7209C210.928 61.3549 210.826 60.9813 210.748 60.6024C210.232 58.1028 208.188 48.0587 207.898 44.3421C207.419 38.1976 206.896 28.2001 203.848 24.4644C202.098 22.3203 199.26 20.6221 195.261 19.8161C192.102 19.1793 187.335 19.6973 184.883 21.6437C182.169 23.7979 178.796 28.0743 178.675 40.761C178.659 42.4082 178.721 44.0887 178.845 45.7789C179.179 50.3523 184.893 75.7289 184.893 75.7289C184.893 75.7289 165.835 55.8657 162.999 52.941L129.242 18.1376C127.23 15.964 124.852 14.1598 122.218 12.807C118.731 11.199 114.298 10.6035 110.282 13.5162C108.625 14.7849 107.232 16.3658 106.182 18.1698C103.584 23.2679 104.238 30.9593 109.255 35.7087L154.803 81.4122L99.2541 26.6253C99.2541 26.6253 85.3855 13.2218 75.9862 22.5596C68.4467 30.0499 74.6783 40.7697 76.6153 43.3537C76.9119 43.748 77.2404 44.1174 77.5973 44.4581L128.122 92.8836L77.0638 45.7458C76.0298 44.7912 73.696 43.883 72.3417 43.5008C68.9683 42.5488 63.2387 42.0609 58.7476 47.0324C54.5128 51.7203 55.6236 58.7055 56.3011 60.5659C57.0397 62.594 59.2857 66.4466 60.8405 67.9437L114.771 119.87L80.5621 87.3986C78.9763 85.8977 74.9149 82.8489 71.8363 82.2327C68.0164 81.4682 63.1722 81.279 59.9046 84.5221C55.9252 88.4717 55.6687 94.7327 56.4422 98.1161C56.8467 99.5464 57.3653 100.942 57.9931 102.289C58.7336 103.695 59.6911 104.974 60.8305 106.081L126.111 167.488C126.346 167.707 127.519 168.619 127.777 168.811C130.279 170.679 142.862 179.296 166.568 182.02C191.035 184.832 205.95 169.246 208.145 167.089Z" fill="#FFE294" stroke="#FFB955" stroke-width="10" stroke-linejoin="round"/>
<path d="M220.443 227.711C220.539 227.455 220.608 227.196 220.709 226.942C221.947 223.82 229.211 203.483 226.485 188.655C224.083 175.588 219.6 165.36 208.263 156.46C205.207 154.061 203.586 154.108 195.663 147.36C188.7 141.431 180.459 132.948 178.565 130.979C178.296 130.7 178.046 130.405 177.815 130.094C176.292 128.047 170.196 119.807 168.363 116.56C165.333 111.194 160.635 102.353 156.294 100.255C153.803 99.0507 150.513 98.7104 146.548 99.6693C143.415 100.427 139.313 102.91 137.913 105.71C136.364 108.809 135.113 114.11 140.363 125.66C141.045 127.16 141.811 128.657 142.637 130.137C144.872 134.141 160.771 154.728 160.771 154.728C160.771 154.728 135.107 144.775 131.3 143.323L86.0002 126.039C83.2583 124.919 80.3413 124.288 77.3816 124.175C73.5425 124.191 69.2728 125.524 66.863 129.86C65.8968 131.71 65.3023 133.732 65.113 135.81C64.9119 141.529 68.7537 148.224 75.3083 150.409L135.9 172.591L62.4058 146.401C62.4058 146.401 44.1731 140.112 39.5987 152.546C35.9295 162.52 46.1064 169.604 48.9537 171.128C49.3892 171.36 49.8429 171.556 50.3104 171.714L116.563 194.26L50.3708 173.106C49.0304 172.678 46.5314 172.841 45.1424 173.066C41.6827 173.629 36.2833 175.607 34.313 182.01C32.4551 188.048 36.413 193.91 37.813 195.31C39.3393 196.837 43.0026 199.38 45.0444 200.08L115.863 224.36L71.1386 209.381C69.0673 208.691 64.098 207.643 61.0474 208.386C57.2621 209.306 52.7915 211.181 51.1999 215.501C49.2617 220.762 51.6743 226.546 53.8048 229.285C54.7756 230.411 55.8353 231.457 56.9735 232.413C58.2383 233.374 59.6468 234.129 61.147 234.65L146.259 262.73C146.564 262.829 148.013 263.159 148.327 263.225C151.385 263.86 166.429 266.355 189.067 258.809C212.431 251.021 219.365 230.594 220.443 227.711Z" fill="#FFE294" stroke="#FFB955" stroke-width="10" stroke-linejoin="round"/>
</svg>
