<svg width="280" height="280" viewBox="0 0 280 280" fill="none" xmlns="http://www.w3.org/2000/svg">
<path d="M231.613 175.593C231.709 175.337 231.778 175.078 231.879 174.824C233.117 171.702 240.381 151.365 237.655 136.537C235.252 123.47 230.769 113.242 219.433 104.342C216.377 101.943 214.756 101.99 206.833 95.2423C199.87 89.3126 191.629 80.8295 189.735 78.8612C189.466 78.5824 189.216 78.2869 188.985 77.9764C187.461 75.9289 181.366 67.6885 179.533 64.4423C176.503 59.0755 171.805 50.235 167.464 48.1369C164.972 46.9327 161.683 46.5924 157.718 47.5512C154.585 48.3088 150.483 50.7924 149.083 53.5924C147.533 56.6914 146.283 61.9924 151.533 73.5424C152.215 75.042 152.98 76.5391 153.806 78.0189C156.042 82.0229 171.941 102.61 171.941 102.61C171.941 102.61 146.276 92.6573 142.47 91.2049L97.1701 73.9211C94.4282 72.801 91.5112 72.1701 88.5515 72.0571C84.7124 72.0724 80.4427 73.4056 78.0329 77.7423C77.0668 79.5924 76.4722 81.6138 76.2829 83.6923C76.0819 89.4107 79.9236 96.1059 86.4782 98.2907L147.07 120.473L73.5757 94.2831C73.5757 94.2831 55.343 87.9935 50.7686 100.428C47.0994 110.402 57.2763 117.486 60.1236 119.009C60.5591 119.242 61.0128 119.438 61.4803 119.596L127.733 142.142L61.5407 120.988C60.2003 120.56 57.7013 120.723 56.3123 120.948C52.8526 121.511 47.4532 123.489 45.4829 129.892C43.6251 135.93 47.5829 141.792 48.9829 143.192C50.5092 144.719 54.1725 147.262 56.2143 147.962L127.033 172.242L82.3085 157.263C80.2371 156.573 75.2679 155.525 72.2173 156.268C68.432 157.188 63.9614 159.063 62.3698 163.383C60.4315 168.644 62.8442 174.428 64.9747 177.167C65.9455 178.293 67.0052 179.339 68.1434 180.295C69.4082 181.255 70.8167 182.011 72.3169 182.532L157.429 210.612C157.734 210.71 159.183 211.041 159.497 211.107C162.554 211.742 177.599 214.237 200.237 206.691C223.601 198.903 230.535 178.476 231.613 175.593Z" fill="#FFE294" stroke="#FFB955" stroke-width="10" stroke-linejoin="round"/>
<path d="M220.443 227.711C220.539 227.455 220.608 227.196 220.709 226.942C221.947 223.82 229.211 203.483 226.485 188.655C224.082 175.588 219.6 165.36 208.263 156.46C205.207 154.061 203.586 154.108 195.663 147.36C188.7 141.431 180.459 132.948 178.565 130.979C178.296 130.7 178.046 130.405 177.815 130.094C176.292 128.047 170.196 119.807 168.363 116.56C165.333 111.194 160.635 102.353 156.294 100.255C153.803 99.0507 150.513 98.7104 146.548 99.6693C143.415 100.427 139.313 102.91 137.913 105.71C136.363 108.809 135.113 114.11 140.363 125.66C141.045 127.16 141.811 128.657 142.637 130.137C144.872 134.141 160.771 154.728 160.771 154.728C160.771 154.728 135.107 144.775 131.3 143.323L86.0001 126.039C83.2583 124.919 80.3413 124.288 77.3816 124.175C73.5425 124.191 69.2728 125.524 66.863 129.86C65.8968 131.71 65.3023 133.732 65.113 135.81C64.9119 141.529 68.7537 148.224 75.3082 150.409L135.9 172.591L62.4058 146.401C62.4058 146.401 44.1731 140.112 39.5987 152.546C35.9294 162.52 46.1064 169.604 48.9537 171.128C49.3892 171.36 49.8429 171.556 50.3104 171.714L116.563 194.26L50.3708 173.106C49.0303 172.678 46.5314 172.841 45.1423 173.066C41.6826 173.629 36.2833 175.607 34.313 182.01C32.4551 188.048 36.413 193.91 37.813 195.31C39.3393 196.837 43.0025 199.38 45.0443 200.08L115.863 224.36L71.1386 209.381C69.0672 208.691 64.098 207.643 61.0474 208.386C57.2621 209.306 52.7915 211.181 51.1999 215.501C49.2616 220.762 51.6743 226.546 53.8048 229.285C54.7756 230.411 55.8353 231.457 56.9735 232.413C58.2383 233.374 59.6468 234.129 61.147 234.65L146.259 262.73C146.564 262.829 148.013 263.159 148.327 263.225C151.385 263.86 166.429 266.355 189.067 258.809C212.431 251.021 219.365 230.594 220.443 227.711Z" fill="#FFE294" stroke="#FFB955" stroke-width="10" stroke-linejoin="round"/>
<path d="M86.4684 54.2687L81.6332 10.035C81.6296 10.0024 81.6187 9.97102 81.6013 9.94323C81.5838 9.91543 81.5603 9.89197 81.5324 9.87459C81.5046 9.85721 81.4731 9.84638 81.4405 9.84291C81.4079 9.83944 81.3749 9.84342 81.344 9.85455L61.6754 16.9458C61.6445 16.9569 61.6166 16.9749 61.5937 16.9984C61.5707 17.0219 61.5535 17.0503 61.5431 17.0814C61.5328 17.1126 61.5296 17.1457 61.5339 17.1782C61.5382 17.2107 61.5498 17.2419 61.5679 17.2693L86.0717 54.4118C86.0985 54.4524 86.1382 54.4828 86.1844 54.4982C86.2305 54.5135 86.2805 54.5129 86.3263 54.4964C86.3721 54.4799 86.411 54.4484 86.4368 54.4072C86.4625 54.3659 86.4737 54.3171 86.4684 54.2687Z" fill="#FFE955"/>
<path d="M61.3317 67.8688L43.6154 27.0505C43.6023 27.0204 43.5826 26.9936 43.5577 26.9723C43.5328 26.9509 43.5033 26.9354 43.4716 26.9271C43.4398 26.9187 43.4066 26.9177 43.3744 26.924C43.3422 26.9304 43.3119 26.9439 43.2857 26.9637L26.5989 39.561C26.5727 39.5808 26.5513 39.6062 26.5364 39.6355C26.5215 39.6647 26.5134 39.6969 26.5127 39.7297C26.512 39.7626 26.5188 39.7951 26.5326 39.8249C26.5463 39.8547 26.5666 39.881 26.592 39.9018L60.9951 68.1229C61.0327 68.1537 61.0796 68.1711 61.1283 68.172C61.177 68.173 61.2245 68.1576 61.2634 68.1283C61.3022 68.099 61.3301 68.0574 61.3425 68.0104C61.3548 67.9633 61.351 67.9134 61.3317 67.8688Z" fill="#FFE955"/>
<path d="M45.438 83.3859L13.934 51.9613C13.9108 51.9381 13.8826 51.9205 13.8516 51.9098C13.8206 51.8991 13.7875 51.8956 13.7549 51.8995C13.7223 51.9035 13.6911 51.9147 13.6635 51.9325C13.6359 51.9503 13.6127 51.974 13.5956 52.0021L2.7211 69.8594C2.70403 69.8874 2.69354 69.919 2.69043 69.9517C2.68732 69.9843 2.69166 70.0173 2.70313 70.048C2.7146 70.0788 2.7329 70.1065 2.75665 70.1292C2.7804 70.1518 2.80898 70.1688 2.84023 70.1788L45.2187 83.7461C45.265 83.7609 45.315 83.7597 45.3606 83.7427C45.4062 83.7257 45.4448 83.6939 45.4701 83.6523C45.4954 83.6107 45.506 83.5619 45.5002 83.5135C45.4943 83.4652 45.4724 83.4203 45.438 83.3859Z" fill="#FFE955"/>
</svg>
